<svg aria-hidden="true" style="position: absolute; width: 0; height: 0; overflow: hidden;" version="1.1" xmlns="http://www.w3.org/2000/svg" xmlns:xlink="http://www.w3.org/1999/xlink">
<defs>
<symbol id="icon-github" viewBox="0 0 32 32">
<path d="M16 0.667c-8.84 0-16 7.040-16 15.723 0 6.948 4.584 12.84 10.94 14.917 0.8 0.148 1.093-0.339 1.093-0.756 0-0.373-0.013-1.363-0.020-2.673-4.451 0.948-5.389-2.109-5.389-2.109-0.728-1.815-1.78-2.3-1.78-2.3-1.449-0.975 0.112-0.955 0.112-0.955 1.607 0.109 2.451 1.62 2.451 1.62 1.427 2.404 3.745 1.709 4.66 1.308 0.144-1.017 0.556-1.709 1.013-2.103-3.553-0.393-7.288-1.745-7.288-7.769 0-1.716 0.62-3.119 1.647-4.219-0.18-0.397-0.72-1.996 0.14-4.161 0 0 1.34-0.421 4.4 1.612 1.28-0.349 2.64-0.523 4-0.531 1.36 0.008 2.72 0.181 4 0.531 3.040-2.033 4.38-1.612 4.38-1.612 0.86 2.165 0.32 3.764 0.16 4.161 1.020 1.1 1.64 2.503 1.64 4.219 0 6.040-3.74 7.369-7.3 7.756 0.56 0.472 1.080 1.436 1.080 2.909 0 2.104-0.020 3.795-0.020 4.305 0 0.412 0.28 0.904 1.1 0.747 6.401-2.064 10.981-7.96 10.981-14.897 0-8.683-7.164-15.723-16-15.723z"></path>
</symbol>
<symbol id="icon-rs_school_js" viewBox="0 0 86 32">
<path fill="#000" style="fill: var(--color1, #000)" d="M44.485 10.599l4.099-0.265c0.094 0.67 0.265 1.169 0.546 1.528 0.452 0.561 1.075 0.842 1.902 0.842 0.608 0 1.091-0.14 1.418-0.436 0.312-0.234 0.499-0.608 0.499-0.998 0-0.374-0.171-0.733-0.468-0.966-0.312-0.281-1.044-0.561-2.198-0.811-1.886-0.421-3.242-0.982-4.037-1.699-0.795-0.67-1.247-1.652-1.216-2.697 0-0.717 0.218-1.434 0.623-2.026 0.468-0.67 1.107-1.2 1.87-1.496 0.826-0.359 1.98-0.546 3.429-0.546 1.777 0 3.133 0.327 4.068 0.998 0.935 0.655 1.496 1.715 1.668 3.164l-4.053 0.234c-0.109-0.623-0.327-1.075-0.686-1.372s-0.826-0.436-1.434-0.436c-0.499 0-0.873 0.109-1.122 0.312-0.234 0.187-0.39 0.468-0.374 0.779 0 0.234 0.125 0.452 0.312 0.592 0.203 0.187 0.686 0.359 1.45 0.514 1.886 0.405 3.227 0.811 4.053 1.231s1.418 0.935 1.777 1.543c0.374 0.623 0.561 1.34 0.546 2.073 0 0.873-0.249 1.746-0.748 2.478-0.514 0.764-1.231 1.356-2.073 1.715-0.888 0.39-2.011 0.592-3.351 0.592-2.369 0-4.006-0.452-4.925-1.372s-1.465-2.073-1.574-3.476zM0.982 15.213v-13.935h7.186c1.325 0 2.354 0.109 3.055 0.343 0.686 0.218 1.294 0.67 1.699 1.278 0.452 0.67 0.67 1.45 0.655 2.26 0.047 1.372-0.655 2.681-1.855 3.367-0.468 0.265-0.982 0.452-1.512 0.546 0.39 0.109 0.779 0.296 1.122 0.514 0.265 0.218 0.483 0.468 0.686 0.733 0.234 0.265 0.436 0.561 0.608 0.873l2.089 4.037h-4.894l-2.307-4.286c-0.296-0.546-0.546-0.904-0.779-1.075-0.312-0.218-0.686-0.327-1.060-0.327h-0.374v5.658h-4.318zM5.3 6.921h1.824c0.39-0.031 0.764-0.094 1.138-0.187 0.281-0.047 0.53-0.203 0.701-0.436 0.421-0.561 0.358-1.356-0.156-1.839-0.281-0.234-0.826-0.359-1.605-0.359h-1.902v2.821zM0 27.152l4.099-0.265c0.094 0.67 0.265 1.169 0.546 1.528 0.436 0.561 1.075 0.857 1.902 0.857 0.608 0 1.091-0.14 1.418-0.436 0.312-0.249 0.499-0.608 0.499-0.998 0-0.374-0.171-0.733-0.468-0.966-0.312-0.281-1.044-0.561-2.213-0.811-1.886-0.421-3.242-0.982-4.037-1.699-0.795-0.67-1.247-1.652-1.216-2.697 0-0.717 0.218-1.434 0.623-2.026 0.468-0.67 1.107-1.2 1.87-1.496 0.826-0.358 1.98-0.546 3.429-0.546 1.777 0 3.133 0.327 4.068 0.998s1.481 1.715 1.652 3.164l-4.053 0.234c-0.109-0.623-0.327-1.076-0.686-1.372-0.343-0.296-0.826-0.436-1.434-0.421-0.499 0-0.873 0.109-1.122 0.327-0.249 0.187-0.39 0.468-0.374 0.779 0 0.234 0.125 0.452 0.312 0.592 0.203 0.187 0.686 0.358 1.45 0.514 1.886 0.405 3.227 0.811 4.053 1.231s1.418 0.935 1.777 1.543c0.374 0.623 0.561 1.34 0.561 2.057 0 0.873-0.265 1.73-0.748 2.463-0.514 0.764-1.231 1.356-2.073 1.715-0.888 0.39-2.011 0.592-3.351 0.592-2.369 0-4.006-0.452-4.925-1.372-0.92-0.935-1.434-2.089-1.559-3.491z"></path>
<path fill="#000" style="fill: var(--color1, #000)" d="M20.731 26.061l3.772 1.138c-0.203 0.951-0.623 1.855-1.2 2.65-0.53 0.701-1.231 1.247-2.026 1.605-0.811 0.358-1.839 0.546-3.086 0.546-1.512 0-2.759-0.218-3.71-0.655-0.966-0.436-1.793-1.216-2.494-2.322s-1.044-2.525-1.044-4.255c0-2.307 0.608-4.084 1.839-5.315s2.962-1.855 5.206-1.855c1.761 0 3.133 0.358 4.146 1.060 0.998 0.717 1.746 1.808 2.245 3.273l-3.803 0.842c-0.094-0.327-0.234-0.655-0.421-0.935-0.234-0.327-0.53-0.577-0.888-0.764s-0.764-0.265-1.169-0.265c-0.982 0-1.73 0.39-2.245 1.185-0.39 0.577-0.592 1.496-0.592 2.743 0 1.543 0.234 2.603 0.701 3.18s1.122 0.857 1.98 0.857c0.826 0 1.45-0.234 1.87-0.686 0.421-0.483 0.733-1.153 0.92-2.026zM29.537 17.831h4.302v4.879h4.707v-4.879h4.333v13.935h-4.333v-5.642h-4.707v5.642h-4.302v-13.935z"></path>
<path fill="#000" style="fill: var(--color1, #000)" d="M42.287 24.799c0-2.276 0.639-4.053 1.902-5.315s3.039-1.902 5.3-1.902c2.322 0 4.099 0.623 5.362 1.87s1.886 2.993 1.886 5.237c0 1.637-0.281 2.962-0.826 4.006-0.53 1.029-1.356 1.87-2.369 2.432-1.044 0.577-2.338 0.873-3.881 0.873-1.574 0-2.868-0.249-3.897-0.748-1.060-0.53-1.933-1.356-2.51-2.369-0.639-1.091-0.966-2.447-0.966-4.084zM46.589 24.814c0 1.403 0.265 2.416 0.779 3.039 0.514 0.608 1.231 0.92 2.135 0.92 0.92 0 1.637-0.296 2.151-0.904s0.764-1.683 0.764-3.242c0-1.309-0.265-2.276-0.795-2.868-0.53-0.608-1.247-0.904-2.151-0.904-0.795-0.031-1.559 0.312-2.089 0.92s-0.795 1.621-0.795 3.039zM61.148 24.799c0-2.276 0.639-4.053 1.902-5.315s3.039-1.902 5.3-1.902c2.322 0 4.115 0.623 5.362 1.87s1.886 2.993 1.886 5.237c0 1.637-0.281 2.962-0.826 4.006-0.53 1.029-1.356 1.87-2.369 2.432-1.044 0.577-2.338 0.873-3.881 0.873-1.574 0-2.868-0.249-3.897-0.748-1.060-0.53-1.933-1.356-2.51-2.369-0.639-1.091-0.966-2.447-0.966-4.084zM65.45 24.814c0 1.403 0.265 2.416 0.779 3.039 0.514 0.608 1.231 0.92 2.135 0.92 0.92 0 1.637-0.296 2.151-0.904s0.764-1.683 0.764-3.242c0-1.309-0.265-2.276-0.795-2.868-0.53-0.608-1.247-0.904-2.151-0.904-0.795-0.031-1.574 0.312-2.089 0.92-0.53 0.608-0.795 1.621-0.795 3.039z"></path>
<path fill="#000" style="fill: var(--color1, #000)" d="M75.145 17.831h4.302v10.506h6.718v3.429h-11.036v-13.935z"></path>
<path fill="#fff" style="fill: var(--color2, #fff)" d="M46.656 8.813l22.382-16.866 15.487 20.552-22.382 16.866z"></path>
<path fill="#fff" style="fill: var(--color2, #fff)" d="M73.386 4.669c2.684 3.561 1.348 9.094-2.983 12.358s-10.018 3.023-12.701-0.538c-2.684-3.561-1.348-9.094 2.983-12.358s10.018-3.023 12.701 0.538z"></path>
<path fill="#fff" style="fill: var(--color2, #fff)" d="M52.888 10.185l15.672-11.81 9.728 12.909-15.672 11.81z"></path>
<path fill="#fff" style="fill: var(--color2, #fff); stroke: var(--color1, #000)" stroke="#000" stroke-linejoin="miter" stroke-linecap="butt" stroke-miterlimit="10" stroke-width="0.6235" d="M73.386 4.669c2.684 3.561 1.348 9.094-2.983 12.358s-10.018 3.023-12.701-0.538c-2.684-3.561-1.348-9.094 2.983-12.358s10.018-3.023 12.701 0.538z"></path>
<path fill="none" stroke="#000" style="stroke: var(--color1, #000)" stroke-linejoin="miter" stroke-linecap="butt" stroke-miterlimit="10" stroke-width="0.6235" d="M52.888 10.185l15.672-11.81 9.728 12.909-15.672 11.81z"></path>
<path fill="none" stroke="#000" style="stroke: var(--color1, #000)" stroke-linejoin="miter" stroke-linecap="butt" stroke-miterlimit="10" stroke-width="0.6235" d="M46.656 8.813l22.382-16.866 15.487 20.552-22.382 16.866z"></path>
<path fill="none" stroke="#000" style="stroke: var(--color1, #000)" stroke-linejoin="miter" stroke-linecap="butt" stroke-miterlimit="10" stroke-width="0.6235" d="M73.386 4.669c2.684 3.561 1.348 9.094-2.983 12.358s-10.018 3.023-12.701-0.538c-2.684-3.561-1.348-9.094 2.983-12.358s10.018-3.023 12.701 0.538z"></path>
<path fill="#000" style="fill: var(--color1, #000)" d="M61.163 9.555l1.559-1.091 1.917 2.728c0.327 0.436 0.577 0.904 0.764 1.418 0.109 0.39 0.078 0.811-0.078 1.185-0.203 0.468-0.53 0.857-0.966 1.138-0.514 0.358-0.951 0.561-1.325 0.623-0.358 0.062-0.733 0-1.075-0.156-0.374-0.187-0.701-0.452-0.951-0.795l1.34-1.247c0.109 0.171 0.249 0.327 0.405 0.452 0.109 0.078 0.234 0.125 0.374 0.125 0.109 0 0.218-0.047 0.296-0.109 0.156-0.094 0.265-0.281 0.249-0.468-0.047-0.265-0.156-0.53-0.327-0.733l-2.182-3.071zM65.839 11.285l1.418-1.122c0.156 0.187 0.359 0.327 0.577 0.405 0.312 0.094 0.639 0.031 0.904-0.171 0.187-0.125 0.343-0.296 0.405-0.514 0.094-0.281-0.062-0.592-0.343-0.686-0.047-0.016-0.094-0.031-0.14-0.031-0.187-0.016-0.514 0.062-0.998 0.265-0.795 0.327-1.418 0.452-1.886 0.405-0.452-0.047-0.873-0.281-1.122-0.67-0.187-0.265-0.281-0.577-0.296-0.888 0-0.359 0.094-0.717 0.296-1.013 0.296-0.421 0.655-0.779 1.091-1.060 0.655-0.452 1.231-0.67 1.73-0.67s0.966 0.234 1.403 0.717l-1.403 1.107c-0.281-0.359-0.811-0.436-1.169-0.156l-0.047 0.047c-0.156 0.094-0.265 0.234-0.327 0.405-0.047 0.125-0.016 0.265 0.062 0.374 0.062 0.078 0.156 0.14 0.265 0.14 0.125 0.016 0.343-0.047 0.655-0.187 0.779-0.327 1.372-0.514 1.777-0.577 0.343-0.062 0.701-0.031 1.029 0.109 0.296 0.125 0.546 0.343 0.717 0.608 0.218 0.312 0.343 0.686 0.359 1.075 0.016 0.405-0.094 0.795-0.312 1.138-0.281 0.421-0.639 0.779-1.060 1.060-0.857 0.592-1.559 0.842-2.12 0.748-0.608-0.094-1.107-0.405-1.465-0.857z"></path>
</symbol>
</defs>
</svg>
